<mxfile host="65bd71144e" modified="2021-01-17T06:32:57.480Z" agent="5.0 (X11; Linux x86_64) AppleWebKit/537.36 (KHTML, like Gecko) Code/1.52.1 Chrome/83.0.4103.122 Electron/9.3.5 Safari/537.36" etag="KnCHuFsQNytblA2Ih2H-" version="13.10.0" type="embed">
    <diagram id="LKr6Y9R56_4BZkTqFB7h" name="第 1 页">
        <mxGraphModel dx="1850" dy="649" grid="1" gridSize="10" guides="1" tooltips="1" connect="1" arrows="1" fold="1" page="1" pageScale="1" pageWidth="827" pageHeight="1169" math="0" shadow="0">
            <root>
                <mxCell id="0"/>
                <mxCell id="1" parent="0"/>
                <mxCell id="3" value="" style="shape=umlLifeline;participant=umlActor;perimeter=lifelinePerimeter;whiteSpace=wrap;html=1;container=1;collapsible=0;recursiveResize=0;verticalAlign=top;spacingTop=36;outlineConnect=0;" parent="1" vertex="1">
                    <mxGeometry x="130" y="120" width="20" height="680" as="geometry"/>
                </mxCell>
                <mxCell id="4" value="前端" style="shape=umlLifeline;perimeter=lifelinePerimeter;whiteSpace=wrap;html=1;container=1;collapsible=0;recursiveResize=0;outlineConnect=0;" parent="1" vertex="1">
                    <mxGeometry x="270" y="120" width="100" height="680" as="geometry"/>
                </mxCell>
                <mxCell id="5" value="后端" style="shape=umlLifeline;perimeter=lifelinePerimeter;whiteSpace=wrap;html=1;container=1;collapsible=0;recursiveResize=0;outlineConnect=0;" parent="1" vertex="1">
                    <mxGeometry x="470" y="120" width="100" height="680" as="geometry"/>
                </mxCell>
                <mxCell id="7" value="输入学号、统一身份认证密码" style="html=1;verticalAlign=bottom;endArrow=block;" parent="1" target="4" edge="1">
                    <mxGeometry width="80" relative="1" as="geometry">
                        <mxPoint x="140" y="200" as="sourcePoint"/>
                        <mxPoint x="220" y="200" as="targetPoint"/>
                    </mxGeometry>
                </mxCell>
                <mxCell id="8" value="POST /api/info" style="html=1;verticalAlign=bottom;endArrow=block;" parent="1" source="4" target="5" edge="1">
                    <mxGeometry width="80" relative="1" as="geometry">
                        <mxPoint x="330" y="230" as="sourcePoint"/>
                        <mxPoint x="510" y="230" as="targetPoint"/>
                        <Array as="points">
                            <mxPoint x="340" y="210"/>
                        </Array>
                    </mxGeometry>
                </mxCell>
                <mxCell id="9" value="统一身份认证" style="shape=umlLifeline;perimeter=lifelinePerimeter;whiteSpace=wrap;html=1;container=1;collapsible=0;recursiveResize=0;outlineConnect=0;" parent="1" vertex="1">
                    <mxGeometry x="630" y="120" width="100" height="680" as="geometry"/>
                </mxCell>
                <mxCell id="10" value="模拟登录" style="html=1;verticalAlign=bottom;endArrow=block;" parent="1" source="5" target="9" edge="1">
                    <mxGeometry width="80" relative="1" as="geometry">
                        <mxPoint x="540.0003448275861" y="230" as="sourcePoint"/>
                        <mxPoint x="680" y="230" as="targetPoint"/>
                        <Array as="points">
                            <mxPoint x="560.19" y="230"/>
                        </Array>
                    </mxGeometry>
                </mxCell>
                <mxCell id="11" value="返回 cookie" style="html=1;verticalAlign=bottom;endArrow=open;dashed=1;endSize=8;" parent="1" source="9" target="5" edge="1">
                    <mxGeometry relative="1" as="geometry">
                        <mxPoint x="660" y="290" as="sourcePoint"/>
                        <mxPoint x="580" y="290" as="targetPoint"/>
                        <Array as="points">
                            <mxPoint x="550" y="260"/>
                        </Array>
                    </mxGeometry>
                </mxCell>
                <mxCell id="12" value="携带cookie&lt;br&gt;请求学生身份信息" style="html=1;verticalAlign=bottom;endArrow=block;" parent="1" source="5" target="13" edge="1">
                    <mxGeometry x="0.5202" width="80" relative="1" as="geometry">
                        <mxPoint x="520.0003448275863" y="310" as="sourcePoint"/>
                        <mxPoint x="679.69" y="310" as="targetPoint"/>
                        <Array as="points">
                            <mxPoint x="560" y="300"/>
                        </Array>
                        <mxPoint as="offset"/>
                    </mxGeometry>
                </mxCell>
                <mxCell id="13" value="教务系统" style="shape=umlLifeline;perimeter=lifelinePerimeter;whiteSpace=wrap;html=1;container=1;collapsible=0;recursiveResize=0;outlineConnect=0;" parent="1" vertex="1">
                    <mxGeometry x="760" y="120" width="100" height="680" as="geometry"/>
                </mxCell>
                <mxCell id="14" value="返回学生身份信息" style="html=1;verticalAlign=bottom;endArrow=open;dashed=1;endSize=8;" parent="1" source="13" edge="1">
                    <mxGeometry x="0.4473" relative="1" as="geometry">
                        <mxPoint x="679.69" y="340" as="sourcePoint"/>
                        <mxPoint x="520.0003448275863" y="340" as="targetPoint"/>
                        <mxPoint as="offset"/>
                    </mxGeometry>
                </mxCell>
                <mxCell id="15" value="提取并返回整理好的身份数据" style="html=1;verticalAlign=bottom;endArrow=open;dashed=1;endSize=8;" parent="1" source="5" target="4" edge="1">
                    <mxGeometry relative="1" as="geometry">
                        <mxPoint x="440" y="370" as="sourcePoint"/>
                        <mxPoint x="360" y="370" as="targetPoint"/>
                        <Array as="points">
                            <mxPoint x="500" y="370"/>
                        </Array>
                    </mxGeometry>
                </mxCell>
                <mxCell id="17" value="返回注册表单" style="html=1;verticalAlign=bottom;endArrow=open;dashed=1;endSize=8;" parent="1" source="4" target="3" edge="1">
                    <mxGeometry relative="1" as="geometry">
                        <mxPoint x="260" y="400" as="sourcePoint"/>
                        <mxPoint x="180" y="400" as="targetPoint"/>
                        <Array as="points">
                            <mxPoint x="300" y="390"/>
                        </Array>
                    </mxGeometry>
                </mxCell>
                <mxCell id="18" value="输入昵称、密码" style="html=1;verticalAlign=bottom;endArrow=block;" parent="1" source="3" target="4" edge="1">
                    <mxGeometry width="80" relative="1" as="geometry">
                        <mxPoint x="190.5" y="460" as="sourcePoint"/>
                        <mxPoint x="370.0000000000001" y="460" as="targetPoint"/>
                        <Array as="points">
                            <mxPoint x="300" y="440"/>
                        </Array>
                    </mxGeometry>
                </mxCell>
                <mxCell id="19" value="POST /api/register" style="html=1;verticalAlign=bottom;endArrow=block;" parent="1" source="4" target="5" edge="1">
                    <mxGeometry width="80" relative="1" as="geometry">
                        <mxPoint x="340.00034482758616" y="460" as="sourcePoint"/>
                        <mxPoint x="500" y="460" as="targetPoint"/>
                        <Array as="points">
                            <mxPoint x="360.19" y="460"/>
                        </Array>
                    </mxGeometry>
                </mxCell>
                <mxCell id="20" value="OJ" style="shape=umlLifeline;perimeter=lifelinePerimeter;whiteSpace=wrap;html=1;container=1;collapsible=0;recursiveResize=0;outlineConnect=0;" parent="1" vertex="1">
                    <mxGeometry x="-50" y="120" width="100" height="680" as="geometry"/>
                </mxCell>
                <mxCell id="22" value="保存学生昵称、身份信息，留作统计&lt;br&gt;生成OJ注册URL并签名" style="html=1;verticalAlign=bottom;endArrow=open;dashed=1;endSize=8;" parent="1" edge="1">
                    <mxGeometry relative="1" as="geometry">
                        <mxPoint x="520" y="602" as="sourcePoint"/>
                        <mxPoint x="319.5" y="602" as="targetPoint"/>
                        <Array as="points">
                            <mxPoint x="520.5" y="602"/>
                        </Array>
                    </mxGeometry>
                </mxCell>
                <mxCell id="23" value="显示验证成功&lt;br&gt;准备重定向" style="html=1;verticalAlign=bottom;endArrow=open;dashed=1;endSize=8;" parent="1" edge="1">
                    <mxGeometry relative="1" as="geometry">
                        <mxPoint x="321" y="642" as="sourcePoint"/>
                        <mxPoint x="139.5" y="642" as="targetPoint"/>
                        <Array as="points">
                            <mxPoint x="320.5" y="642"/>
                        </Array>
                    </mxGeometry>
                </mxCell>
                <mxCell id="27" value="访问注册URL" style="html=1;verticalAlign=bottom;endArrow=block;" parent="1" edge="1">
                    <mxGeometry width="80" relative="1" as="geometry">
                        <mxPoint x="139.5" y="672" as="sourcePoint"/>
                        <mxPoint x="-0.5" y="672" as="targetPoint"/>
                        <Array as="points">
                            <mxPoint x="100" y="672"/>
                        </Array>
                    </mxGeometry>
                </mxCell>
                <mxCell id="28" value="返回注册结果" style="html=1;verticalAlign=bottom;endArrow=open;dashed=1;endSize=8;" parent="1" edge="1">
                    <mxGeometry relative="1" as="geometry">
                        <mxPoint x="-0.5" y="712" as="sourcePoint"/>
                        <mxPoint x="139.5" y="712" as="targetPoint"/>
                        <Array as="points">
                            <mxPoint x="100" y="712"/>
                        </Array>
                    </mxGeometry>
                </mxCell>
                <mxCell id="29" value="模拟登录" style="html=1;verticalAlign=bottom;endArrow=block;" edge="1" parent="1">
                    <mxGeometry width="80" relative="1" as="geometry">
                        <mxPoint x="520" y="474" as="sourcePoint"/>
                        <mxPoint x="680" y="474" as="targetPoint"/>
                        <Array as="points">
                            <mxPoint x="560.69" y="474"/>
                        </Array>
                    </mxGeometry>
                </mxCell>
                <mxCell id="30" value="返回 cookie" style="html=1;verticalAlign=bottom;endArrow=open;dashed=1;endSize=8;" edge="1" parent="1">
                    <mxGeometry relative="1" as="geometry">
                        <mxPoint x="680" y="504" as="sourcePoint"/>
                        <mxPoint x="520" y="504" as="targetPoint"/>
                        <Array as="points">
                            <mxPoint x="550.5" y="504"/>
                        </Array>
                    </mxGeometry>
                </mxCell>
                <mxCell id="31" value="携带cookie&lt;br&gt;请求学生身份信息" style="html=1;verticalAlign=bottom;endArrow=block;" edge="1" parent="1">
                    <mxGeometry x="0.5202" width="80" relative="1" as="geometry">
                        <mxPoint x="520" y="544" as="sourcePoint"/>
                        <mxPoint x="810" y="544" as="targetPoint"/>
                        <Array as="points">
                            <mxPoint x="560.5" y="544"/>
                        </Array>
                        <mxPoint as="offset"/>
                    </mxGeometry>
                </mxCell>
                <mxCell id="32" value="返回学生身份信息" style="html=1;verticalAlign=bottom;endArrow=open;dashed=1;endSize=8;" edge="1" parent="1">
                    <mxGeometry x="0.4473" relative="1" as="geometry">
                        <mxPoint x="810" y="584" as="sourcePoint"/>
                        <mxPoint x="520.5003448275866" y="584" as="targetPoint"/>
                        <mxPoint as="offset"/>
                    </mxGeometry>
                </mxCell>
            </root>
        </mxGraphModel>
    </diagram>
</mxfile>